<svg xmlns="http://www.w3.org/2000/svg" viewBox="0 0 100 100" width="512" height="512"><defs>
<radialGradient id="glow" cx="50%" cy="50%" r="55%"><stop offset="0%" stop-color="#f5c451" stop-opacity="0.5"></stop><stop offset="55%" stop-color="#f5c451" stop-opacity="0.12"></stop><stop offset="100%" stop-color="#f5c451" stop-opacity="0"></stop></radialGradient>
<linearGradient id="gold" x1="0" y1="0" x2="0" y2="1"><stop offset="0%" stop-color="#ffe08a"></stop><stop offset="52%" stop-color="#f5c451"></stop><stop offset="100%" stop-color="#e0972f"></stop></linearGradient>
<linearGradient id="sg" x1="0" y1="0" x2="0" y2="1"><stop offset="0%" stop-color="#fff7df"></stop><stop offset="100%" stop-color="#ffd56b"></stop></linearGradient>
</defs><ellipse cx="50" cy="54" rx="49" ry="53" fill="url(#glow)"></ellipse><circle cx="50" cy="9" r="4.6" fill="none" stroke="url(#gold)" stroke-width="2.4"></circle><line x1="50" y1="13.6" x2="50" y2="18.2" stroke="url(#gold)" stroke-width="2.4"></line><circle cx="50" cy="16.4" r="2.5" fill="url(#gold)"></circle><path d="M36.5,26.5 L40.5,18.6 L59.5,18.6 L63.5,26.5 Z" fill="url(#gold)" stroke-linejoin="round"></path><rect x="31" y="26.5" width="38" height="53" rx="11" fill="#0b0720" stroke="url(#gold)" stroke-width="3.4"></rect><line x1="42" y1="29" x2="42" y2="77" stroke="url(#gold)" stroke-width="1.3" opacity="0.3"></line><line x1="58" y1="29" x2="58" y2="77" stroke="url(#gold)" stroke-width="1.3" opacity="0.3"></line><path d="M50.00,36.00 L52.68,46.53 L62.02,40.98 L56.47,50.32 L67.00,53.00 L56.47,55.68 L62.02,65.02 L52.68,59.47 L50.00,70.00 L47.32,59.47 L37.98,65.02 L43.53,55.68 L33.00,53.00 L43.53,50.32 L37.98,40.98 L47.32,46.53 Z" fill="url(#sg)" stroke-linejoin="round"></path><circle cx="50" cy="53" r="2.5" fill="#fff" opacity="0.85"></circle><path d="M37.5,79.5 L40,86 L60,86 L62.5,79.5 Z" fill="url(#gold)" stroke-linejoin="round"></path><circle cx="50" cy="89.6" r="2.4" fill="url(#gold)"></circle></svg>